<mxfile host="Electron" modified="2024-07-11T16:56:37.283Z" agent="Mozilla/5.0 (Windows NT 10.0; Win64; x64) AppleWebKit/537.36 (KHTML, like Gecko) draw.io/22.1.16 Chrome/120.0.6099.109 Electron/28.1.0 Safari/537.36" etag="TMUY0miSBDzdc8HBxkIg" version="22.1.16" type="device">
  <diagram name="applicationStart-autoEncoder" id="2YBvvXClWsGukQMizWep">
    <mxGraphModel dx="2049" dy="1194" grid="1" gridSize="10" guides="1" tooltips="1" connect="1" arrows="1" fold="1" page="1" pageScale="1" pageWidth="850" pageHeight="1100" math="0" shadow="0">
      <root>
        <mxCell id="0" />
        <mxCell id="1" parent="0" />
        <mxCell id="0B2PYAGFJCXUJfTsET5T-30" value="" style="html=1;verticalAlign=bottom;endArrow=block;curved=0;rounded=0;entryX=0.03;entryY=-0.004;entryDx=0;entryDy=0;entryPerimeter=0;" edge="1" parent="1" target="0B2PYAGFJCXUJfTsET5T-29">
          <mxGeometry width="80" relative="1" as="geometry">
            <mxPoint x="945" y="440" as="sourcePoint" />
            <mxPoint x="79.68992248062015" y="450" as="targetPoint" />
            <Array as="points">
              <mxPoint x="90" y="440" />
            </Array>
          </mxGeometry>
        </mxCell>
        <mxCell id="8UBQslbiQ1dqH_b8KJJY-15" value="decodingGameApp" style="shape=umlLifeline;perimeter=lifelinePerimeter;whiteSpace=wrap;html=1;container=1;dropTarget=0;collapsible=0;recursiveResize=0;outlineConnect=0;portConstraint=eastwest;newEdgeStyle={&quot;curved&quot;:0,&quot;rounded&quot;:0};" parent="1" vertex="1">
          <mxGeometry x="130" y="40" width="140" height="680" as="geometry" />
        </mxCell>
        <mxCell id="8UBQslbiQ1dqH_b8KJJY-16" value="" style="html=1;points=[[0,0,0,0,5],[0,1,0,0,-5],[1,0,0,0,5],[1,1,0,0,-5]];perimeter=orthogonalPerimeter;outlineConnect=0;targetShapes=umlLifeline;portConstraint=eastwest;newEdgeStyle={&quot;curved&quot;:0,&quot;rounded&quot;:0};" parent="8UBQslbiQ1dqH_b8KJJY-15" vertex="1">
          <mxGeometry x="65" y="80" width="10" height="580" as="geometry" />
        </mxCell>
        <mxCell id="8UBQslbiQ1dqH_b8KJJY-17" value="decoder" style="shape=umlActor;verticalLabelPosition=bottom;verticalAlign=top;html=1;" parent="1" vertex="1">
          <mxGeometry x="40" y="100" width="30" height="60" as="geometry" />
        </mxCell>
        <mxCell id="8UBQslbiQ1dqH_b8KJJY-18" value="start" style="html=1;verticalAlign=bottom;endArrow=block;curved=0;rounded=0;exitX=0.5;exitY=0.5;exitDx=0;exitDy=0;exitPerimeter=0;" parent="1" source="8UBQslbiQ1dqH_b8KJJY-17" target="8UBQslbiQ1dqH_b8KJJY-16" edge="1">
          <mxGeometry width="80" relative="1" as="geometry">
            <mxPoint x="140" y="140" as="sourcePoint" />
            <mxPoint x="220" y="140" as="targetPoint" />
          </mxGeometry>
        </mxCell>
        <mxCell id="8UBQslbiQ1dqH_b8KJJY-21" value="mainView" style="shape=umlLifeline;perimeter=lifelinePerimeter;whiteSpace=wrap;html=1;container=1;dropTarget=0;collapsible=0;recursiveResize=0;outlineConnect=0;portConstraint=eastwest;newEdgeStyle={&quot;curved&quot;:0,&quot;rounded&quot;:0};" parent="1" vertex="1">
          <mxGeometry x="1190" y="40" width="100" height="680" as="geometry" />
        </mxCell>
        <mxCell id="8UBQslbiQ1dqH_b8KJJY-27" value="" style="html=1;points=[[0,0,0,0,5],[0,1,0,0,-5],[1,0,0,0,5],[1,1,0,0,-5]];perimeter=orthogonalPerimeter;outlineConnect=0;targetShapes=umlLifeline;portConstraint=eastwest;newEdgeStyle={&quot;curved&quot;:0,&quot;rounded&quot;:0};" parent="8UBQslbiQ1dqH_b8KJJY-21" vertex="1">
          <mxGeometry x="45" y="180" width="10" height="480" as="geometry" />
        </mxCell>
        <mxCell id="8UBQslbiQ1dqH_b8KJJY-28" value="decoderNameDialog" style="shape=umlLifeline;perimeter=lifelinePerimeter;whiteSpace=wrap;html=1;container=1;dropTarget=0;collapsible=0;recursiveResize=0;outlineConnect=0;portConstraint=eastwest;newEdgeStyle={&quot;curved&quot;:0,&quot;rounded&quot;:0};" parent="1" vertex="1">
          <mxGeometry x="1310" y="40" width="120" height="680" as="geometry" />
        </mxCell>
        <mxCell id="8UBQslbiQ1dqH_b8KJJY-30" value="" style="html=1;points=[[0,0,0,0,5],[0,1,0,0,-5],[1,0,0,0,5],[1,1,0,0,-5]];perimeter=orthogonalPerimeter;outlineConnect=0;targetShapes=umlLifeline;portConstraint=eastwest;newEdgeStyle={&quot;curved&quot;:0,&quot;rounded&quot;:0};" parent="8UBQslbiQ1dqH_b8KJJY-28" vertex="1">
          <mxGeometry x="55" y="190" width="10" height="470" as="geometry" />
        </mxCell>
        <mxCell id="8UBQslbiQ1dqH_b8KJJY-29" value="setupGame()" style="html=1;verticalAlign=bottom;endArrow=block;curved=0;rounded=0;" parent="1" edge="1">
          <mxGeometry x="0.7027" width="80" relative="1" as="geometry">
            <mxPoint x="205" y="209.0000000000001" as="sourcePoint" />
            <mxPoint x="575" y="209.0000000000001" as="targetPoint" />
            <mxPoint as="offset" />
          </mxGeometry>
        </mxCell>
        <mxCell id="DJOfWeLJxFiv9ff_7gT9-1" value="enter name" style="html=1;verticalAlign=bottom;endArrow=block;curved=0;rounded=0;exitX=0.5;exitY=0.5;exitDx=0;exitDy=0;exitPerimeter=0;" parent="1" target="8UBQslbiQ1dqH_b8KJJY-30" edge="1">
          <mxGeometry x="0.9182" width="80" relative="1" as="geometry">
            <mxPoint x="55" y="130" as="sourcePoint" />
            <mxPoint x="825" y="360" as="targetPoint" />
            <Array as="points">
              <mxPoint x="100" y="130" />
              <mxPoint x="100" y="410" />
            </Array>
            <mxPoint as="offset" />
          </mxGeometry>
        </mxCell>
        <mxCell id="DJOfWeLJxFiv9ff_7gT9-2" value="decodingGame" style="shape=umlLifeline;perimeter=lifelinePerimeter;whiteSpace=wrap;html=1;container=1;dropTarget=0;collapsible=0;recursiveResize=0;outlineConnect=0;portConstraint=eastwest;newEdgeStyle={&quot;curved&quot;:0,&quot;rounded&quot;:0};" parent="1" vertex="1">
          <mxGeometry x="530" y="40" width="100" height="680" as="geometry" />
        </mxCell>
        <mxCell id="DJOfWeLJxFiv9ff_7gT9-3" value="" style="html=1;points=[[0,0,0,0,5],[0,1,0,0,-5],[1,0,0,0,5],[1,1,0,0,-5]];perimeter=orthogonalPerimeter;outlineConnect=0;targetShapes=umlLifeline;portConstraint=eastwest;newEdgeStyle={&quot;curved&quot;:0,&quot;rounded&quot;:0};" parent="DJOfWeLJxFiv9ff_7gT9-2" vertex="1">
          <mxGeometry x="45" y="110" width="10" height="550" as="geometry" />
        </mxCell>
        <mxCell id="0B2PYAGFJCXUJfTsET5T-23" value="setupView&lt;br&gt;Listeners()" style="html=1;verticalAlign=bottom;endArrow=block;curved=0;rounded=0;" edge="1" parent="DJOfWeLJxFiv9ff_7gT9-2" source="DJOfWeLJxFiv9ff_7gT9-3" target="DJOfWeLJxFiv9ff_7gT9-3">
          <mxGeometry x="0.2857" y="-30" width="80" relative="1" as="geometry">
            <mxPoint x="60" y="300" as="sourcePoint" />
            <mxPoint x="60" y="320" as="targetPoint" />
            <Array as="points">
              <mxPoint x="80" y="300" />
              <mxPoint x="80" y="320" />
            </Array>
            <mxPoint x="30" y="30" as="offset" />
          </mxGeometry>
        </mxCell>
        <mxCell id="DJOfWeLJxFiv9ff_7gT9-11" value="gameFacade" style="shape=umlLifeline;perimeter=lifelinePerimeter;whiteSpace=wrap;html=1;container=1;dropTarget=0;collapsible=0;recursiveResize=0;outlineConnect=0;portConstraint=eastwest;newEdgeStyle={&quot;curved&quot;:0,&quot;rounded&quot;:0};" parent="1" vertex="1">
          <mxGeometry x="290" y="40" width="100" height="680" as="geometry" />
        </mxCell>
        <mxCell id="DJOfWeLJxFiv9ff_7gT9-14" value="" style="html=1;points=[[0,0,0,0,5],[0,1,0,0,-5],[1,0,0,0,5],[1,1,0,0,-5]];perimeter=orthogonalPerimeter;outlineConnect=0;targetShapes=umlLifeline;portConstraint=eastwest;newEdgeStyle={&quot;curved&quot;:0,&quot;rounded&quot;:0};" parent="DJOfWeLJxFiv9ff_7gT9-11" vertex="1">
          <mxGeometry x="45" y="90" width="10" height="570" as="geometry" />
        </mxCell>
        <mxCell id="DJOfWeLJxFiv9ff_7gT9-12" value="viewFacade" style="shape=umlLifeline;perimeter=lifelinePerimeter;whiteSpace=wrap;html=1;container=1;dropTarget=0;collapsible=0;recursiveResize=0;outlineConnect=0;portConstraint=eastwest;newEdgeStyle={&quot;curved&quot;:0,&quot;rounded&quot;:0};" parent="1" vertex="1">
          <mxGeometry x="410" y="40" width="100" height="680" as="geometry" />
        </mxCell>
        <mxCell id="0B2PYAGFJCXUJfTsET5T-6" value="createNameDialog()" style="html=1;verticalAlign=bottom;endArrow=block;curved=0;rounded=0;" edge="1" parent="DJOfWeLJxFiv9ff_7gT9-12" target="8UBQslbiQ1dqH_b8KJJY-30">
          <mxGeometry x="0.8556" width="80" relative="1" as="geometry">
            <mxPoint x="55" y="200" as="sourcePoint" />
            <mxPoint x="415" y="200" as="targetPoint" />
            <mxPoint as="offset" />
          </mxGeometry>
        </mxCell>
        <mxCell id="DJOfWeLJxFiv9ff_7gT9-15" value="" style="html=1;points=[[0,0,0,0,5],[0,1,0,0,-5],[1,0,0,0,5],[1,1,0,0,-5]];perimeter=orthogonalPerimeter;outlineConnect=0;targetShapes=umlLifeline;portConstraint=eastwest;newEdgeStyle={&quot;curved&quot;:0,&quot;rounded&quot;:0};" parent="DJOfWeLJxFiv9ff_7gT9-12" vertex="1">
          <mxGeometry x="45" y="100" width="10" height="560" as="geometry" />
        </mxCell>
        <mxCell id="DJOfWeLJxFiv9ff_7gT9-26" value="getInstance()" style="html=1;verticalAlign=bottom;endArrow=block;curved=0;rounded=0;" parent="1" edge="1">
          <mxGeometry width="80" relative="1" as="geometry">
            <mxPoint x="205" y="138" as="sourcePoint" />
            <mxPoint x="335.0000000000001" y="138" as="targetPoint" />
          </mxGeometry>
        </mxCell>
        <mxCell id="DJOfWeLJxFiv9ff_7gT9-27" value="getIstance()" style="html=1;verticalAlign=bottom;endArrow=block;curved=0;rounded=0;" parent="1" edge="1">
          <mxGeometry x="0.56" width="80" relative="1" as="geometry">
            <mxPoint x="205" y="149" as="sourcePoint" />
            <mxPoint x="455.0000000000001" y="149" as="targetPoint" />
            <mxPoint as="offset" />
          </mxGeometry>
        </mxCell>
        <mxCell id="DJOfWeLJxFiv9ff_7gT9-28" value="generate" style="html=1;verticalAlign=bottom;endArrow=block;curved=0;rounded=0;" parent="1" edge="1">
          <mxGeometry x="0.7027" width="80" relative="1" as="geometry">
            <mxPoint x="205" y="160" as="sourcePoint" />
            <mxPoint x="575" y="160" as="targetPoint" />
            <mxPoint as="offset" />
          </mxGeometry>
        </mxCell>
        <mxCell id="0B2PYAGFJCXUJfTsET5T-5" value="createView()" style="html=1;verticalAlign=bottom;endArrow=block;curved=0;rounded=0;" edge="1" parent="1" target="8UBQslbiQ1dqH_b8KJJY-27">
          <mxGeometry x="0.8312" width="80" relative="1" as="geometry">
            <mxPoint x="465.0000000000001" y="230" as="sourcePoint" />
            <mxPoint x="695" y="230" as="targetPoint" />
            <mxPoint as="offset" />
          </mxGeometry>
        </mxCell>
        <mxCell id="0B2PYAGFJCXUJfTsET5T-8" value="getColorList()" style="html=1;verticalAlign=bottom;endArrow=block;curved=0;rounded=0;" edge="1" parent="1">
          <mxGeometry x="0.8312" width="80" relative="1" as="geometry">
            <mxPoint x="345" y="260" as="sourcePoint" />
            <mxPoint x="1235" y="260" as="targetPoint" />
            <mxPoint as="offset" />
          </mxGeometry>
        </mxCell>
        <mxCell id="0B2PYAGFJCXUJfTsET5T-9" value="playerController" style="shape=umlLifeline;perimeter=lifelinePerimeter;whiteSpace=wrap;html=1;container=1;dropTarget=0;collapsible=0;recursiveResize=0;outlineConnect=0;portConstraint=eastwest;newEdgeStyle={&quot;curved&quot;:0,&quot;rounded&quot;:0};" vertex="1" parent="1">
          <mxGeometry x="650" y="40" width="100" height="680" as="geometry" />
        </mxCell>
        <mxCell id="0B2PYAGFJCXUJfTsET5T-14" value="" style="html=1;points=[[0,0,0,0,5],[0,1,0,0,-5],[1,0,0,0,5],[1,1,0,0,-5]];perimeter=orthogonalPerimeter;outlineConnect=0;targetShapes=umlLifeline;portConstraint=eastwest;newEdgeStyle={&quot;curved&quot;:0,&quot;rounded&quot;:0};" vertex="1" parent="0B2PYAGFJCXUJfTsET5T-9">
          <mxGeometry x="45" y="120" width="10" height="540" as="geometry" />
        </mxCell>
        <mxCell id="0B2PYAGFJCXUJfTsET5T-10" value="gameController" style="shape=umlLifeline;perimeter=lifelinePerimeter;whiteSpace=wrap;html=1;container=1;dropTarget=0;collapsible=0;recursiveResize=0;outlineConnect=0;portConstraint=eastwest;newEdgeStyle={&quot;curved&quot;:0,&quot;rounded&quot;:0};" vertex="1" parent="1">
          <mxGeometry x="770" y="40" width="100" height="680" as="geometry" />
        </mxCell>
        <mxCell id="0B2PYAGFJCXUJfTsET5T-15" value="" style="html=1;points=[[0,0,0,0,5],[0,1,0,0,-5],[1,0,0,0,5],[1,1,0,0,-5]];perimeter=orthogonalPerimeter;outlineConnect=0;targetShapes=umlLifeline;portConstraint=eastwest;newEdgeStyle={&quot;curved&quot;:0,&quot;rounded&quot;:0};" vertex="1" parent="0B2PYAGFJCXUJfTsET5T-10">
          <mxGeometry x="45" y="130" width="10" height="530" as="geometry" />
        </mxCell>
        <mxCell id="0B2PYAGFJCXUJfTsET5T-11" value="nameInsertController" style="shape=umlLifeline;perimeter=lifelinePerimeter;whiteSpace=wrap;html=1;container=1;dropTarget=0;collapsible=0;recursiveResize=0;outlineConnect=0;portConstraint=eastwest;newEdgeStyle={&quot;curved&quot;:0,&quot;rounded&quot;:0};" vertex="1" parent="1">
          <mxGeometry x="890" y="40" width="120" height="680" as="geometry" />
        </mxCell>
        <mxCell id="0B2PYAGFJCXUJfTsET5T-17" value="" style="html=1;points=[[0,0,0,0,5],[0,1,0,0,-5],[1,0,0,0,5],[1,1,0,0,-5]];perimeter=orthogonalPerimeter;outlineConnect=0;targetShapes=umlLifeline;portConstraint=eastwest;newEdgeStyle={&quot;curved&quot;:0,&quot;rounded&quot;:0};" vertex="1" parent="0B2PYAGFJCXUJfTsET5T-11">
          <mxGeometry x="55" y="140" width="10" height="520" as="geometry" />
        </mxCell>
        <mxCell id="0B2PYAGFJCXUJfTsET5T-21" value="nameInsertListener()" style="html=1;verticalAlign=bottom;endArrow=block;curved=0;rounded=0;" edge="1" parent="0B2PYAGFJCXUJfTsET5T-11" source="0B2PYAGFJCXUJfTsET5T-17" target="0B2PYAGFJCXUJfTsET5T-17">
          <mxGeometry x="0.2857" y="-60" width="80" relative="1" as="geometry">
            <mxPoint x="90" y="239.99999999999994" as="sourcePoint" />
            <mxPoint x="90" y="259.99999999999994" as="targetPoint" />
            <Array as="points">
              <mxPoint x="90" y="240" />
              <mxPoint x="90" y="260" />
            </Array>
            <mxPoint x="60" y="60" as="offset" />
          </mxGeometry>
        </mxCell>
        <mxCell id="0B2PYAGFJCXUJfTsET5T-12" value="difficultySelectionController" style="shape=umlLifeline;perimeter=lifelinePerimeter;whiteSpace=wrap;html=1;container=1;dropTarget=0;collapsible=0;recursiveResize=0;outlineConnect=0;portConstraint=eastwest;newEdgeStyle={&quot;curved&quot;:0,&quot;rounded&quot;:0};" vertex="1" parent="1">
          <mxGeometry x="1030" y="40" width="150" height="680" as="geometry" />
        </mxCell>
        <mxCell id="0B2PYAGFJCXUJfTsET5T-19" value="" style="html=1;points=[[0,0,0,0,5],[0,1,0,0,-5],[1,0,0,0,5],[1,1,0,0,-5]];perimeter=orthogonalPerimeter;outlineConnect=0;targetShapes=umlLifeline;portConstraint=eastwest;newEdgeStyle={&quot;curved&quot;:0,&quot;rounded&quot;:0};" vertex="1" parent="0B2PYAGFJCXUJfTsET5T-12">
          <mxGeometry x="70" y="150" width="10" height="510" as="geometry" />
        </mxCell>
        <mxCell id="0B2PYAGFJCXUJfTsET5T-13" value="generate" style="html=1;verticalAlign=bottom;endArrow=block;curved=0;rounded=0;" edge="1" parent="1">
          <mxGeometry width="80" relative="1" as="geometry">
            <mxPoint x="584.9999999999998" y="169.9999999999999" as="sourcePoint" />
            <mxPoint x="694.9999999999998" y="169.9999999999999" as="targetPoint" />
            <mxPoint as="offset" />
          </mxGeometry>
        </mxCell>
        <mxCell id="0B2PYAGFJCXUJfTsET5T-16" value="generate" style="html=1;verticalAlign=bottom;endArrow=block;curved=0;rounded=0;" edge="1" parent="1">
          <mxGeometry x="0.5217" width="80" relative="1" as="geometry">
            <mxPoint x="585" y="178.9999999999999" as="sourcePoint" />
            <mxPoint x="814.9999999999998" y="178.9999999999999" as="targetPoint" />
            <mxPoint as="offset" />
          </mxGeometry>
        </mxCell>
        <mxCell id="0B2PYAGFJCXUJfTsET5T-18" value="generate" style="html=1;verticalAlign=bottom;endArrow=block;curved=0;rounded=0;" edge="1" parent="1">
          <mxGeometry x="0.6944" width="80" relative="1" as="geometry">
            <mxPoint x="585" y="189.9999999999999" as="sourcePoint" />
            <mxPoint x="944.9999999999998" y="189.9999999999999" as="targetPoint" />
            <mxPoint as="offset" />
          </mxGeometry>
        </mxCell>
        <mxCell id="0B2PYAGFJCXUJfTsET5T-20" value="generate" style="html=1;verticalAlign=bottom;endArrow=block;curved=0;rounded=0;" edge="1" parent="1">
          <mxGeometry x="0.6944" width="80" relative="1" as="geometry">
            <mxPoint x="585" y="198.9999999999999" as="sourcePoint" />
            <mxPoint x="1099.9999999999998" y="198.9999999999999" as="targetPoint" />
            <mxPoint as="offset" />
          </mxGeometry>
        </mxCell>
        <mxCell id="0B2PYAGFJCXUJfTsET5T-22" value="difficultySelection&lt;br&gt;Listener()" style="html=1;verticalAlign=bottom;endArrow=block;curved=0;rounded=0;" edge="1" parent="1">
          <mxGeometry x="0.2857" y="46" width="80" relative="1" as="geometry">
            <mxPoint x="1110" y="310" as="sourcePoint" />
            <mxPoint x="1110" y="330" as="targetPoint" />
            <Array as="points">
              <mxPoint x="1135" y="310" />
              <mxPoint x="1135" y="330" />
            </Array>
            <mxPoint x="45" y="-36" as="offset" />
          </mxGeometry>
        </mxCell>
        <mxCell id="0B2PYAGFJCXUJfTsET5T-24" value="showMainView()" style="html=1;verticalAlign=bottom;endArrow=block;curved=0;rounded=0;" edge="1" parent="1">
          <mxGeometry x="0.8312" y="-1" width="80" relative="1" as="geometry">
            <mxPoint x="465" y="379" as="sourcePoint" />
            <mxPoint x="1235" y="379" as="targetPoint" />
            <mxPoint as="offset" />
          </mxGeometry>
        </mxCell>
        <mxCell id="0B2PYAGFJCXUJfTsET5T-25" value="showDecoder&lt;br&gt;NameDialog()" style="html=1;verticalAlign=bottom;endArrow=block;curved=0;rounded=0;" edge="1" parent="1">
          <mxGeometry x="0.8556" y="-1" width="80" relative="1" as="geometry">
            <mxPoint x="465" y="389" as="sourcePoint" />
            <mxPoint x="1365" y="389" as="targetPoint" />
            <mxPoint as="offset" />
          </mxGeometry>
        </mxCell>
        <mxCell id="0B2PYAGFJCXUJfTsET5T-26" value="ActionPerformed()" style="html=1;verticalAlign=bottom;endArrow=block;curved=0;rounded=0;" edge="1" parent="1">
          <mxGeometry x="0.6829" width="80" relative="1" as="geometry">
            <mxPoint x="1365" y="430" as="sourcePoint" />
            <mxPoint x="955" y="430" as="targetPoint" />
            <mxPoint as="offset" />
          </mxGeometry>
        </mxCell>
        <mxCell id="0B2PYAGFJCXUJfTsET5T-29" value="handleDecoder&lt;br&gt;NameInput()" style="shape=umlFrame;whiteSpace=wrap;html=1;pointerEvents=0;width=90;height=30;" vertex="1" parent="1">
          <mxGeometry x="40" y="459" width="1760" height="211" as="geometry" />
        </mxCell>
        <mxCell id="0B2PYAGFJCXUJfTsET5T-31" value="getDecoderName()" style="html=1;verticalAlign=bottom;endArrow=block;curved=0;rounded=0;" edge="1" parent="1">
          <mxGeometry x="0.8556" width="80" relative="1" as="geometry">
            <mxPoint x="464.9999999999998" y="479.9999999999999" as="sourcePoint" />
            <mxPoint x="1365" y="479.9999999999999" as="targetPoint" />
            <mxPoint as="offset" />
          </mxGeometry>
        </mxCell>
        <mxCell id="0B2PYAGFJCXUJfTsET5T-32" value="encoder" style="shape=umlLifeline;perimeter=lifelinePerimeter;whiteSpace=wrap;html=1;container=1;dropTarget=0;collapsible=0;recursiveResize=0;outlineConnect=0;portConstraint=eastwest;newEdgeStyle={&quot;curved&quot;:0,&quot;rounded&quot;:0};" vertex="1" parent="1">
          <mxGeometry x="1450" y="40" width="100" height="680" as="geometry" />
        </mxCell>
        <mxCell id="0B2PYAGFJCXUJfTsET5T-34" value="" style="html=1;points=[[0,0,0,0,5],[0,1,0,0,-5],[1,0,0,0,5],[1,1,0,0,-5]];perimeter=orthogonalPerimeter;outlineConnect=0;targetShapes=umlLifeline;portConstraint=eastwest;newEdgeStyle={&quot;curved&quot;:0,&quot;rounded&quot;:0};" vertex="1" parent="0B2PYAGFJCXUJfTsET5T-32">
          <mxGeometry x="45" y="460" width="10" height="200" as="geometry" />
        </mxCell>
        <mxCell id="0B2PYAGFJCXUJfTsET5T-33" value="decoder" style="shape=umlLifeline;perimeter=lifelinePerimeter;whiteSpace=wrap;html=1;container=1;dropTarget=0;collapsible=0;recursiveResize=0;outlineConnect=0;portConstraint=eastwest;newEdgeStyle={&quot;curved&quot;:0,&quot;rounded&quot;:0};" vertex="1" parent="1">
          <mxGeometry x="1570" y="40" width="100" height="680" as="geometry" />
        </mxCell>
        <mxCell id="0B2PYAGFJCXUJfTsET5T-37" value="" style="html=1;points=[[0,0,0,0,5],[0,1,0,0,-5],[1,0,0,0,5],[1,1,0,0,-5]];perimeter=orthogonalPerimeter;outlineConnect=0;targetShapes=umlLifeline;portConstraint=eastwest;newEdgeStyle={&quot;curved&quot;:0,&quot;rounded&quot;:0};" vertex="1" parent="0B2PYAGFJCXUJfTsET5T-33">
          <mxGeometry x="45" y="470" width="10" height="190" as="geometry" />
        </mxCell>
        <mxCell id="0B2PYAGFJCXUJfTsET5T-35" value="generate" style="html=1;verticalAlign=bottom;endArrow=block;curved=0;rounded=0;" edge="1" parent="1">
          <mxGeometry x="0.887" width="80" relative="1" as="geometry">
            <mxPoint x="345" y="511" as="sourcePoint" />
            <mxPoint x="1495" y="511" as="targetPoint" />
            <mxPoint as="offset" />
          </mxGeometry>
        </mxCell>
        <mxCell id="0B2PYAGFJCXUJfTsET5T-36" value="createPlayers()" style="html=1;verticalAlign=bottom;endArrow=block;curved=0;rounded=0;" edge="1" parent="1">
          <mxGeometry x="0.6857" width="80" relative="1" as="geometry">
            <mxPoint x="695" y="500" as="sourcePoint" />
            <mxPoint x="345" y="500" as="targetPoint" />
            <mxPoint as="offset" />
          </mxGeometry>
        </mxCell>
        <mxCell id="0B2PYAGFJCXUJfTsET5T-38" value="generate" style="html=1;verticalAlign=bottom;endArrow=block;curved=0;rounded=0;" edge="1" parent="1">
          <mxGeometry x="0.9134" width="80" relative="1" as="geometry">
            <mxPoint x="345" y="520" as="sourcePoint" />
            <mxPoint x="1615" y="520" as="targetPoint" />
            <mxPoint as="offset" />
          </mxGeometry>
        </mxCell>
        <mxCell id="0B2PYAGFJCXUJfTsET5T-39" value="createGame()" style="html=1;verticalAlign=bottom;endArrow=block;curved=0;rounded=0;" edge="1" parent="1">
          <mxGeometry x="0.766" width="80" relative="1" as="geometry">
            <mxPoint x="815" y="539" as="sourcePoint" />
            <mxPoint x="345" y="539" as="targetPoint" />
            <mxPoint as="offset" />
          </mxGeometry>
        </mxCell>
        <mxCell id="0B2PYAGFJCXUJfTsET5T-40" value="showGameInfo()" style="html=1;verticalAlign=bottom;endArrow=block;curved=0;rounded=0;" edge="1" parent="1">
          <mxGeometry x="0.8307" width="80" relative="1" as="geometry">
            <mxPoint x="464.9999999999998" y="567.9999999999999" as="sourcePoint" />
            <mxPoint x="1235" y="567.9999999999999" as="targetPoint" />
            <mxPoint as="offset" />
          </mxGeometry>
        </mxCell>
        <mxCell id="0B2PYAGFJCXUJfTsET5T-41" value="getEncoder()" style="html=1;verticalAlign=bottom;endArrow=block;curved=0;rounded=0;" edge="1" parent="1">
          <mxGeometry x="0.7429" width="80" relative="1" as="geometry">
            <mxPoint x="694.9999999999998" y="579.9999999999999" as="sourcePoint" />
            <mxPoint x="345" y="579.9999999999999" as="targetPoint" />
            <mxPoint as="offset" />
          </mxGeometry>
        </mxCell>
        <mxCell id="0B2PYAGFJCXUJfTsET5T-42" value="generate&lt;br&gt;SecretCode()" style="html=1;verticalAlign=bottom;endArrow=block;curved=0;rounded=0;" edge="1" parent="1">
          <mxGeometry x="0.887" y="-1" width="80" relative="1" as="geometry">
            <mxPoint x="345" y="589" as="sourcePoint" />
            <mxPoint x="1495" y="589" as="targetPoint" />
            <mxPoint as="offset" />
          </mxGeometry>
        </mxCell>
        <mxCell id="0B2PYAGFJCXUJfTsET5T-43" value="getGame()" style="html=1;verticalAlign=bottom;endArrow=block;curved=0;rounded=0;" edge="1" parent="1">
          <mxGeometry x="0.8085" width="80" relative="1" as="geometry">
            <mxPoint x="815" y="609.9999999999999" as="sourcePoint" />
            <mxPoint x="345" y="609.9999999999999" as="targetPoint" />
            <mxPoint as="offset" />
          </mxGeometry>
        </mxCell>
        <mxCell id="0B2PYAGFJCXUJfTsET5T-44" value="start()" style="html=1;verticalAlign=bottom;endArrow=block;curved=0;rounded=0;" edge="1" parent="1" target="0B2PYAGFJCXUJfTsET5T-46">
          <mxGeometry x="0.9065" width="80" relative="1" as="geometry">
            <mxPoint x="345" y="620" as="sourcePoint" />
            <mxPoint x="1615" y="620" as="targetPoint" />
            <mxPoint as="offset" />
          </mxGeometry>
        </mxCell>
        <mxCell id="0B2PYAGFJCXUJfTsET5T-45" value="game" style="shape=umlLifeline;perimeter=lifelinePerimeter;whiteSpace=wrap;html=1;container=1;dropTarget=0;collapsible=0;recursiveResize=0;outlineConnect=0;portConstraint=eastwest;newEdgeStyle={&quot;curved&quot;:0,&quot;rounded&quot;:0};" vertex="1" parent="1">
          <mxGeometry x="1690" y="40" width="100" height="680" as="geometry" />
        </mxCell>
        <mxCell id="0B2PYAGFJCXUJfTsET5T-46" value="" style="html=1;points=[[0,0,0,0,5],[0,1,0,0,-5],[1,0,0,0,5],[1,1,0,0,-5]];perimeter=orthogonalPerimeter;outlineConnect=0;targetShapes=umlLifeline;portConstraint=eastwest;newEdgeStyle={&quot;curved&quot;:0,&quot;rounded&quot;:0};" vertex="1" parent="0B2PYAGFJCXUJfTsET5T-45">
          <mxGeometry x="45" y="500" width="10" height="160" as="geometry" />
        </mxCell>
        <mxCell id="0B2PYAGFJCXUJfTsET5T-47" value="generate" style="html=1;verticalAlign=bottom;endArrow=block;curved=0;rounded=0;" edge="1" parent="1" target="0B2PYAGFJCXUJfTsET5T-46">
          <mxGeometry x="0.9134" width="80" relative="1" as="geometry">
            <mxPoint x="345" y="550" as="sourcePoint" />
            <mxPoint x="1625" y="550" as="targetPoint" />
            <mxPoint as="offset" />
          </mxGeometry>
        </mxCell>
        <mxCell id="0B2PYAGFJCXUJfTsET5T-48" value="hideDecoder&lt;br&gt;NameDialog()" style="html=1;verticalAlign=bottom;endArrow=block;curved=0;rounded=0;" edge="1" parent="1">
          <mxGeometry x="0.8556" y="1" width="80" relative="1" as="geometry">
            <mxPoint x="465" y="659" as="sourcePoint" />
            <mxPoint x="1365" y="659" as="targetPoint" />
            <mxPoint as="offset" />
          </mxGeometry>
        </mxCell>
      </root>
    </mxGraphModel>
  </diagram>
</mxfile>
